<?xml version="1.0" encoding="UTF-8" standalone="no"?>
<!-- Created with Inkscape (http://www.inkscape.org/) -->

<svg
   width="164"
   height="314"
   viewBox="0 0 164 314"
   version="1.1"
   id="svg1"
   xml:space="preserve"
   sodipodi:docname="banner.svg"
   inkscape:export-filename="164x314.png"
   inkscape:export-xdpi="96"
   inkscape:export-ydpi="96"
   inkscape:version="1.4.3 (0d15f75, 2025-12-25)"
   xmlns:inkscape="http://www.inkscape.org/namespaces/inkscape"
   xmlns:sodipodi="http://sodipodi.sourceforge.net/DTD/sodipodi-0.dtd"
   xmlns:xlink="http://www.w3.org/1999/xlink"
   xmlns="http://www.w3.org/2000/svg"
   xmlns:svg="http://www.w3.org/2000/svg"><sodipodi:namedview
     id="namedview1"
     pagecolor="#ffffff"
     bordercolor="#000000"
     borderopacity="0.25"
     inkscape:showpageshadow="2"
     inkscape:pageopacity="0.0"
     inkscape:pagecheckerboard="0"
     inkscape:deskcolor="#d1d1d1"
     inkscape:document-units="px"
     inkscape:zoom="1.3173805"
     inkscape:cx="20.495218"
     inkscape:cy="129.42351"
     inkscape:window-width="1440"
     inkscape:window-height="829"
     inkscape:window-x="-8"
     inkscape:window-y="-8"
     inkscape:window-maximized="1"
     inkscape:current-layer="layer1"><inkscape:page
       x="0"
       y="0"
       width="164"
       height="314"
       id="page2"
       margin="0"
       bleed="0" /></sodipodi:namedview><defs
     id="defs1"><linearGradient
       id="linearGradient18"
       inkscape:collect="always"><stop
         style="stop-color:#ffffff;stop-opacity:1;"
         offset="0"
         id="stop18" /><stop
         style="stop-color:#000000;stop-opacity:1;"
         offset="1"
         id="stop19" /></linearGradient><linearGradient
       id="linearGradient25"
       inkscape:collect="always"><stop
         style="stop-color:#285e36;stop-opacity:1;"
         offset="0"
         id="stop24" /><stop
         style="stop-color:#000000;stop-opacity:1;"
         offset="1"
         id="stop25" /></linearGradient><linearGradient
       id="swatch23"
       inkscape:swatch="solid"><stop
         style="stop-color:#000000;stop-opacity:1;"
         offset="0"
         id="stop23" /></linearGradient><linearGradient
       id="linearGradient4"
       inkscape:collect="always"><stop
         style="stop-color:#285e36;stop-opacity:1;"
         offset="0"
         id="stop5" /><stop
         style="stop-color:#3c8e52;stop-opacity:1;"
         offset="1"
         id="stop6" /></linearGradient><linearGradient
       id="linearGradient3"
       inkscape:collect="always"><stop
         style="stop-color:#48ab54;stop-opacity:1;"
         offset="0"
         id="stop3" /><stop
         style="stop-color:#1f571f;stop-opacity:1;"
         offset="1"
         id="stop4" /></linearGradient><radialGradient
       inkscape:collect="always"
       xlink:href="#linearGradient3"
       id="radialGradient4"
       cx="25.451464"
       cy="28.474665"
       fx="25.451464"
       fy="28.474665"
       r="19.405128"
       gradientTransform="matrix(0.08011583,-1.3476455,2.2960784,0.13649893,-40.957585,54.289713)"
       gradientUnits="userSpaceOnUse" /><radialGradient
       inkscape:collect="always"
       xlink:href="#linearGradient4"
       id="radialGradient6"
       cx="20.430769"
       cy="49.483841"
       fx="20.430769"
       fy="49.483841"
       r="19.692307"
       gradientTransform="matrix(1.1625001,0.0125,-0.00598084,0.55621785,-3.3522525,14.272103)"
       gradientUnits="userSpaceOnUse" /><radialGradient
       inkscape:collect="always"
       xlink:href="#linearGradient25"
       id="radialGradient23"
       gradientUnits="userSpaceOnUse"
       gradientTransform="matrix(1.1625001,0.0125,-0.00598084,0.55621785,-3.3522525,14.272103)"
       cx="13.004607"
       cy="32.833855"
       fx="13.004607"
       fy="32.833855"
       r="19.692307" /><filter
       inkscape:collect="always"
       style="color-interpolation-filters:sRGB"
       id="filter25"
       x="-0.018676906"
       y="-0.033576459"
       width="1.0373538"
       height="1.0671529"><feGaussianBlur
         inkscape:collect="always"
         stdDeviation="0.30649281"
         id="feGaussianBlur25" /></filter><linearGradient
       inkscape:collect="always"
       xlink:href="#linearGradient18"
       id="linearGradient19"
       x1="-37.074154"
       y1="152.41595"
       x2="205.96751"
       y2="152.41595"
       gradientUnits="userSpaceOnUse" /></defs><g
     inkscape:label="Layer 1"
     inkscape:groupmode="layer"
     id="layer1"><rect
       style="opacity:1;fill:#ffffff;fill-opacity:1;stroke:none;stroke-width:0.716"
       id="rect19"
       width="195.66914"
       height="331.6077"
       x="-17.850517"
       y="-8.9252586"
       rx="0.58556271"
       ry="0.16532055" /><path
       style="opacity:0.6875;fill:#008000;stroke:#ffffff;stroke-width:0.716"
       d="m -66.596162,177.13207 190.863232,23.34298 -104.356877,76.20798 136.625117,-76.20798 -43.93974,107.78967 19.9102,-4.80591 14.41772,13.73116 -197.042251,7.55215 z"
       id="path1"
       sodipodi:nodetypes="ccccccccc" /><path
       sodipodi:type="star"
       style="opacity:0.6875;fill:#008000;stroke:#ffffff;stroke-width:0.716"
       id="path2"
       inkscape:flatsided="false"
       sodipodi:sides="3"
       sodipodi:cx="94.058495"
       sodipodi:cy="-4.1193504"
       sodipodi:r1="58.2645"
       sodipodi:r2="56.799877"
       sodipodi:arg1="2.3728596"
       sodipodi:arg2="3.4200572"
       inkscape:rounded="0"
       inkscape:randomized="0"
       d="M 52.178435,36.387594 39.446626,-19.732482 79.918482,-60.642018 134.8858,-43.60805 150.07857,11.896373 107.84306,50.982481 Z"
       inkscape:transform-center-x="-0.70410244"
       inkscape:transform-center-y="-0.71041944" /><path
       sodipodi:type="star"
       style="opacity:0.6875;fill:#008000;stroke:#ffffff;stroke-width:0.716"
       id="path3"
       inkscape:flatsided="false"
       sodipodi:sides="3"
       sodipodi:cx="-32.268246"
       sodipodi:cy="81.013885"
       sodipodi:r1="58.840096"
       sodipodi:r2="57.361004"
       sodipodi:arg1="0.97632132"
       sodipodi:arg2="2.0235189"
       inkscape:rounded="0"
       inkscape:randomized="0"
       d="M 0.68655637,129.75953 -57.358835,132.59632 -90.960613,85.180759 -64.394646,33.493583 -6.5306802,28.101367 24.948744,76.951758 Z"
       inkscape:transform-center-x="0.73768975"
       inkscape:transform-center-y="-0.66504426"
       transform="translate(18.537076,15.104284)" /><path
       style="opacity:0.6875;fill:#008000;fill-opacity:1;stroke:none;stroke-width:0.716"
       d="m 169.57992,51.491874 -54.92467,51.491876 -51.491881,35.01448 -28.14889,5.49246 27.46233,13.73117 -6.86558,4.11935 48.059091,4.80591 -4.805911,3.43279 39.820381,-3.43279 -7.55214,4.11935 35.01448,-7.55214 30.89513,-131.132646 z m 48.05909,142.804146 -53.55156,-86.50635 m 19.22364,112.59557 -43.25318,-72.08863"
       id="path4" /><rect
       style="opacity:0.6875;fill:url(#linearGradient19);fill-opacity:1;stroke:none;stroke-width:0.716"
       id="rect18"
       width="243.04167"
       height="363.87595"
       x="-37.074154"
       y="-29.522011"
       rx="0.58556271"
       ry="0.16532055" /><path
       style="opacity:0.6875;fill:#000000;fill-opacity:1;stroke:none;stroke-width:0.716"
       d="m 1.3731168,63.849929 c 11.0876532,5.543827 3.6113086,0.488844 12.3580512,10.984934 0.114122,0.136947 5.951898,5.038213 6.865583,6.865584 0.36802,0.73604 -0.481004,10.265495 -0.686558,10.984934 -0.338569,1.184992 -1.074213,2.237179 -1.373117,3.432792 -0.758892,3.03557 -0.0751,9.300757 -0.686558,12.358047 -0.556164,2.78082 -3.821597,8.72676 -6.179026,10.29838 -0.627162,0.41811 -1.666133,0.58603 -2.0596747,1.37312 -0.1023461,0.20469 0.1618234,0.52473 0,0.68655 -0.1618233,0.16183 -0.524735,-0.16182 -0.6865584,0 -0.71152,0.71152 -0.470768,2.56964 -0.6865583,3.4328 -0.02162,0.0865 -3.9853099,3.84309 -3.4327919,4.11935 0.4577055,0.22885 0.4787249,-0.90549 0.6865583,-1.37312 0.7078551,-1.59267 1.3384618,-3.21924 2.0596752,-4.80591 1.8949775,-4.16895 0.9248713,-1.78662 4.1193498,-6.17902 2.613552,-3.59364 5.087323,-7.28771 7.552143,-10.98494 1.119966,-1.67995 1.680066,-3.89321 2.746233,-5.492465 0.538581,-0.807871 1.560131,-1.227101 2.059675,-2.059675 0.235488,-0.392479 -0.08976,-0.9243 0,-1.373117 0.839347,-4.196732 2.612546,-5.483408 0.686559,-10.298376 -1.373602,-3.434003 -2.784937,-2.765584 -5.492467,-4.11935 -0.614077,-0.307038 -1.445599,0.307038 -2.059676,0 -1.02346,-0.51173 -1.752734,-1.491961 -2.746233,-2.059675 C 12.697027,78.657516 10.535311,78.18258 8.9252589,76.894539 8.167082,76.287997 7.6889394,75.349461 6.8655838,74.834863 5.8205022,74.181687 4.3602749,74.273294 3.4327919,73.461747 2.4285313,72.583019 2.2067283,71.070969 1.3731168,70.028955 1.0871903,69.671547 0.32364672,70.352601 0,70.028955 -0.32364672,69.705308 -0.11100991,69.099878 0,68.655838 0.40408217,67.039509 0.91541117,65.451899 1.3731168,63.849929 Z"
       id="path15" /><rect
       style="opacity:0.6875;fill:#000000;fill-opacity:1;stroke:none;stroke-width:0.558642"
       id="rect16"
       width="154.47563"
       height="47.227486"
       x="3.4327919"
       y="263.09692"
       rx="0.58556271"
       ry="0.16017169" /><path
       style="opacity:0.6875;fill:#000000;fill-opacity:1;stroke:none;stroke-width:0.716"
       d="m 81.700447,219.69868 v 0.68656 c -8.736933,-7.38611 -15.604893,-8.49473 -26.775777,-9.61182 -2.969067,-0.2969 -5.974396,-0.24393 -8.925259,-0.68656 -1.64764,-0.24714 -3.15658,-1.13749 -4.805908,-1.37311 -2.107437,-0.30106 -7.750171,-0.63705 -10.298376,0 -0.496451,0.12411 -0.871324,0.5862 -1.373117,0.68656 -0.673226,0.13464 -1.408348,-0.21711 -2.059675,0 -0.217109,0.0724 0.161824,0.52473 0,0.68655 -0.161823,0.16183 -0.524735,-0.16182 -0.686558,0 -0.212744,0.21275 -0.715919,1.92824 -1.373117,2.05968 -0.897634,0.17953 -1.845588,-0.16375 -2.746233,0 -3.131141,0.5693 -8.128078,2.67096 -10.984935,3.43279 -1.345054,0.35868 -2.7888508,0.27718 -4.1193498,0.68656 -5.9386447,1.82727 -8.7368152,4.09694 -12.3580509,8.92526 -0.143519,0.19136 -3.3178426,3.49027 -2.0596751,4.11935 3.6728681,1.83643 5.61913,-3.75808 8.2387006,-4.80591 4.5770558,-1.83082 0.6102741,0.61027 2.7462335,0 3.2928187,-0.94081 7.0947257,-1.54486 10.2983757,-2.74623 2.350433,1.05459 2.239242,-1.4629 3.432792,-2.05968 1.294587,-0.64729 2.824763,-0.72582 4.11935,-1.37312 0.738028,-0.36901 1.276878,-1.11218 2.059675,-1.37311 0.651327,-0.21711 1.422222,0.25498 2.059675,0 0.600997,-0.2404 0.79416,-1.08364 1.373117,-1.37312 0.549247,-0.27462 1.510429,0.27462 2.059675,0 1.191642,-0.59582 2.770362,-1.61001 4.119351,-2.05967 0.651326,-0.21711 1.380017,0.0971 2.059675,0 0.9341,-0.13345 1.809935,-0.56953 2.746233,-0.68656 2.171856,-0.27148 4.743827,0.53044 6.865584,0 4.62448,-1.15612 0.0106,-0.0106 1.373117,-1.37312 1.02013,-1.02013 16.369749,1.26722 17.163959,1.37312 13.59261,1.81235 0.846608,-0.30327 7.552142,1.37311 1.59571,0.39893 4.044902,-0.72378 5.492468,0 2.175907,1.08796 3.222703,3.6454 4.805908,5.49247 z"
       id="path13" /><path
       style="opacity:0.6875;fill:#000000;fill-opacity:1;stroke:none;stroke-width:0.716"
       d="m -3.9070712,311.42275 c 0.9154111,-0.22885 1.8026492,-0.68656 2.7462334,-0.68656 2.5277618,0 5.0282724,0.54634 7.5521422,0.68656 16.6783826,0.92658 43.9738326,2.64988 59.7305786,-1.37312 3.420333,-0.87327 18.617983,-10.44269 21.969868,-12.35805 4.795857,-2.74049 9.621866,-5.49821 14.417729,-8.2387 14.20829,-8.11902 -9.855825,6.77725 10.29838,-6.17902 1.83035,-1.17666 4.58069,-2.52103 6.17902,-4.11935 0.36185,-0.36185 0.32471,-1.01127 0.68656,-1.37312 0.16182,-0.16183 0.52473,0.16182 0.68656,0 0.32365,-0.32365 0,-0.91541 0,-1.37312 0,-5.25469 -0.48972,-7.15847 -2.74624,-11.67149 -0.42501,-0.85004 0.2711,-12.48479 0.68656,-13.73117 0.10235,-0.30704 0.50703,-0.41727 0.68656,-0.68656 0.85157,-1.27735 1.26983,-2.80293 2.05968,-4.11935 1.3044,-2.17401 4.95443,-3.61144 6.86558,-4.80591 3.7747,-2.35918 10.64707,-6.52772 13.73117,-9.61181 1.51213,-1.51214 10.63367,-3.32103 6.17902,-4.80591 -1.07976,-0.35992 -7.92719,3.32895 -8.2387,3.43279 -22.30595,7.43532 12.94689,-5.96341 -10.98493,4.80591 -2.63982,1.18792 -5.67441,1.40303 -8.2387,2.74623 -2.31142,1.21075 -3.94155,3.46343 -6.17903,4.80591 -1.24113,0.74468 -2.76678,0.85785 -4.11935,1.37312 -3.45501,1.31619 -6.8291,2.8412 -10.298373,4.11935 -3.108006,1.14505 -6.553732,1.43562 -9.61182,2.74623 -5.214965,2.23499 -0.288954,0.43806 -6.179026,4.11935 -1.676937,1.04809 -4.686043,0.77998 -6.179025,2.05968 -3.272312,2.80484 -3.142209,5.23199 -5.492467,8.92526 -0.521274,0.81914 -1.577954,1.21666 -2.059675,2.05967 -1.077162,1.88503 -1.088735,4.23715 -2.059676,6.17903 -1.603798,3.20759 -3.532376,6.21573 -4.805908,9.61181 -0.813415,2.16911 -1.373117,4.5682 -1.373117,6.86559 0,2.03258 3.178547,-0.80527 2.059675,0.68656 -0.776752,1.03567 -1.58832,2.16727 -2.746233,2.74623 -0.818769,0.40938 -1.866044,-0.25148 -2.746234,0 -1.100237,0.31435 -1.617538,1.87156 -2.746233,2.05967 -4.387271,0.73122 -9.343582,-0.4875 -13.731168,0 -5.983356,0.66482 -11.879215,1.98069 -17.850518,2.74624 -2.959651,0.37944 -6.015584,0.0253 -8.925259,0.68656 -2.197889,0.49952 -4.016674,2.11024 -6.1790249,2.74623 -1.770097,0.52062 -3.683227,0.32471 -5.4924672,0.68656 -2.3428948,0.46858 -4.50879936,1.66688 -6.8655838,2.05967 -2.6082693,0.43472 -5.5625466,0 -8.2387001,0"
       id="path14" /><path
       style="opacity:0.6875;fill:#000000;fill-opacity:1;stroke:none;stroke-width:0.716"
       d="m 70.715513,-20.596751 c -3.172634,9.935182 -2.059675,20.60501158 -2.059675,30.895127 0,1.344898 0.125745,7.677887 1.373117,8.925259 0.323646,0.323646 1.04947,-0.323647 1.373116,0 0.361849,0.361848 0.379521,0.963732 0.686559,1.373116 0.97094,1.294587 2.421889,2.169164 3.432792,3.432792 2.167066,2.708834 -1.38953,-0.01641 2.059675,3.432792 0.809117,0.809117 1.937117,1.250559 2.746233,2.059675 1.036175,1.036175 1.643428,2.467837 2.746234,3.432792 0.770233,0.673954 1.894663,0.805403 2.746233,1.373117 0.538581,0.359054 0.834536,1.014063 1.373117,1.373117 0.98146,0.654307 3.052875,-0.533238 4.11935,0 0.868436,0.434217 1.227101,1.56013 2.059676,2.059675 2.02968,1.217808 5.200226,2.410245 7.55214,2.746233 1.32793,0.189705 8.12682,0.399221 8.92526,0 0.57896,-0.289478 0.87585,-0.958729 1.37312,-1.373116 2.12555,-1.771292 5.09845,-3.579062 7.55214,-4.805909 4.99811,-2.499054 5.23103,-2.425914 9.61182,-5.492467 1.0932,-0.765245 2.5401,-1.067801 3.43279,-2.059675 1.03592,-1.151024 6.82991,-10.552472 7.55214,-12.358051 0.36725,-0.918122 2.51317,-7.7852103 1.37312,-8.925259 -1.5477,-1.5477014 -5.65169,8.115997 -6.86559,8.925259 -1.2043,0.802869 -2.91504,0.570248 -4.11935,1.373117 -1.94326,1.295512 -6.24156,5.28446 -8.92526,6.179025 -0.65132,0.217109 -1.42222,-0.254981 -2.05967,0 -0.601,0.240399 -0.79416,1.083638 -1.37312,1.373117 -0.40938,0.204692 -0.94814,-0.169988 -1.37311,0 -0.76613,0.306449 -1.29356,1.066667 -2.05968,1.373117 -1.97283,0.789133 -4.84635,-0.673079 -6.86558,0 -0.7828,0.260932 -1.27688,1.112184 -2.05968,1.373116 -1.02583,0.341943 -10.228974,1.327677 -11.67149,0.686559 C 91.095789,25.764154 82.993886,16.76557 82.387006,13.731168 81.616294,9.8776111 82.66936,5.9353251 81.700447,2.0596751 c -0.215391,-0.8615634 0.215391,-1.88467002 0,-2.74623348 -0.324637,-1.29854672 -1.936373,-2.90455942 -2.746233,-4.11935032 -1.382852,-2.0742775 -2.884137,-6.0440793 -3.432792,-8.2387003 -0.723696,-2.894785 -2.624531,-5.51619 -4.805909,-7.552142 -3.350326,-3.126971 -6.865584,-1.586929 -6.865584,-4.805909"
       id="path16" /><path
       style="opacity:0.6875;fill:#000000;fill-opacity:1;stroke:none;stroke-width:0.716"
       id="path8"
       d="m 61.686785,150.78591 c 0.583139,-0.0488 0.650461,-0.0583 1.336106,-0.0918 1.108447,-0.0542 1.726748,-0.048 2.887867,-0.164 1.839209,-0.18377 3.026092,-0.39901 4.884017,-0.6902 4.522439,-0.75888 8.88317,-2.16934 13.19997,-3.67575 2.54877,-1.04738 5.148167,-1.96873 7.611629,-3.21021 1.776308,-0.89916 3.38277,-2.08283 5.097954,-3.08616 1.008492,-0.58994 2.556653,-1.41853 3.573592,-1.97015 3.35552,-1.79367 6.69812,-3.60817 9.83409,-5.76783 3.68741,-2.87977 7.19337,-5.98011 10.70667,-9.06684 2.74829,-2.50437 5.59624,-4.91623 8.11644,-7.65877 1.76928,-1.92538 2.06445,-2.41554 3.65892,-4.51077 2.3762,-3.22411 4.45006,-6.66284 6.88931,-9.84116 1.4382,-1.873953 1.94229,-2.381264 3.4861,-4.120234 2.15664,-2.433316 4.69433,-4.46182 7.17638,-6.541408 3.90078,-3.268273 0.69178,-0.734219 4.91806,-3.975082 4.58331,-3.510503 9.82491,-6.0508 15.2345,-8.020183 1.28305,-0.467101 2.5919,-0.860037 3.88785,-1.290056 4.00743,-1.258539 8.14831,-1.916455 12.28688,-2.549463 0,0 -5.5308,-3.877358 -5.5308,-3.877358 v 0 c -4.10707,0.774828 -8.22501,1.52723 -12.24577,2.689406 -1.35637,0.407646 -2.72815,0.767145 -4.06911,1.222938 -1.20056,0.408071 -2.37734,0.884429 -3.55002,1.36681 -4.24421,1.745854 -8.3764,3.795166 -11.96643,6.691 -0.89759,0.652799 -1.79072,1.31178 -2.69278,1.958397 -0.85843,0.615343 -1.74608,1.190371 -2.58855,1.827388 -0.64841,0.490283 -1.2605,1.026993 -1.881,1.552162 -1.8801,1.591266 -3.69364,3.259716 -5.28606,5.145845 -0.56129,0.674839 -1.13925,1.33616 -1.68389,2.024519 -3.05992,3.867437 -5.67031,8.070759 -8.58668,12.043159 -1.53616,1.95116 -1.98308,2.60218 -3.66244,4.41002 -2.52762,2.721 -5.36133,5.12514 -8.15014,7.56809 -3.56679,3.05105 -7.16487,6.08116 -11.01809,8.76879 -3.10029,2.11112 -6.331065,4.03215 -9.645548,5.78749 -1.235405,0.64422 -2.484808,1.26143 -3.718161,1.90957 -1.776329,0.93348 -3.476784,2.00273 -5.261197,2.92075 -2.425929,1.19939 -4.976589,2.10872 -7.435944,3.23558 -4.081689,1.72245 -8.287972,3.16844 -12.691062,3.80922 -0.907193,0.097 -1.811548,0.22576 -2.721581,0.29088 -2.415053,0.1728 -4.841048,0.0504 -7.253541,-0.0932 z" /><path
       style="opacity:0.6875;fill:#000000;fill-opacity:1;stroke:none;stroke-width:0.716"
       d="m 131.81921,127.69986 c 1.83082,-0.91541 3.98838,-1.35785 5.49247,-2.74623 1.58643,-1.46441 2.25616,-3.68228 3.43279,-5.49247 3.25235,-5.00362 6.0827,-10.29186 9.61182,-15.10429 2.67601,-3.64911 8.20058,-6.06467 9.61181,-10.298372 0.9275,-2.782479 -0.69755,-4.794911 2.05968,-7.552142 1.38804,-1.388044 5.58323,-2.836996 6.17902,-3.432792 0.16183,-0.161823 0,-0.457706 0,-0.686558 1.37312,-0.915412 2.67675,-1.944787 4.11935,-2.746234 1.66626,-0.925698 2.28029,-0.220615 3.4328,-1.373117"
       id="path9" /><g
       inkscape:label="Layer 1"
       id="layer1-4"
       transform="translate(4.7823492,262.10461)"><path
         d="M 34.460937,2.7890625 16.410156,35.28125 2.8709736,23.63084 2.6248999,27.650431 17.96881,42.337651 41.845703,10.009766 Z"
         style="fill:url(#radialGradient4);fill-rule:evenodd;stroke-width:99.9;stroke-linecap:round;stroke-linejoin:round;stroke-miterlimit:3.6"
         id="path7"
         sodipodi:nodetypes="ccccccc" /><path
         style="fill:url(#radialGradient23);fill-rule:evenodd;stroke-width:99.9;stroke-linecap:round;stroke-linejoin:round;stroke-miterlimit:3.6;filter:url(#filter25)"
         d="M 9.3538462,44.717948 15.097436,30.523077 33.641026,44.717949 44.717948,45.128205 13.046154,23.220513 c 0,0 -4.5128206,13.866666 -5.6615386,17.31282 -1.1487179,3.446154 -2.0512821,4.184617 -2.0512821,4.184617 z"
         id="path23"
         sodipodi:nodetypes="cccccscc" /><path
         style="fill:url(#radialGradient6);fill-rule:evenodd;stroke-width:99.9;stroke-linecap:round;stroke-linejoin:round;stroke-miterlimit:3.6"
         d="M 9.3538462,44.717948 15.097436,30.523077 33.641026,44.717949 44.717948,45.128205 13.046154,23.220513 c 0,0 -4.5128206,13.866666 -5.6615386,17.31282 -1.1487179,3.446154 -2.0512821,4.184617 -2.0512821,4.184617 z"
         id="path3-5"
         sodipodi:nodetypes="cccccscc" /></g><text
       xml:space="preserve"
       style="font-style:normal;font-variant:normal;font-weight:normal;font-stretch:normal;font-size:38.4087px;font-family:Monospace;-inkscape-font-specification:Monospace;writing-mode:lr-tb;direction:ltr;opacity:0.6875;fill:#ffffff;fill-opacity:1;stroke:none;stroke-width:1.47325"
       x="55.080391"
       y="289.62878"
       id="text16"
       transform="scale(0.96982553,1.0311133)"><tspan
         sodipodi:role="line"
         id="tspan16"
         x="55.080391"
         y="289.62878"
         style="font-style:normal;font-variant:normal;font-weight:normal;font-stretch:normal;font-family:Monospace;-inkscape-font-specification:Monospace;stroke-width:1.47325">VEX</tspan></text><text
       xml:space="preserve"
       style="font-style:normal;font-variant:normal;font-weight:normal;font-stretch:normal;font-size:15.5893px;font-family:Monospace;-inkscape-font-specification:Monospace;writing-mode:lr-tb;direction:ltr;opacity:0.6875;fill:#ffffff;fill-opacity:1;stroke:none;stroke-width:0.597959"
       x="128.48471"
       y="291.36539"
       id="text16-8"
       transform="scale(0.97655251,1.0240105)"><tspan
         sodipodi:role="line"
         id="tspan16-2"
         x="128.48471"
         y="291.36539"
         style="font-style:normal;font-variant:normal;font-weight:normal;font-stretch:normal;font-family:Monospace;-inkscape-font-specification:Monospace;stroke-width:0.597959">4.1</tspan></text><rect
       style="opacity:0.6875;fill:#ffffff;fill-opacity:1;stroke:none;stroke-width:0.716"
       id="rect17"
       width="94.058495"
       height="2.0596752"
       x="58.444794"
       y="302.75949"
       rx="0.58556271"
       ry="0.16532055" /><text
       xml:space="preserve"
       style="font-style:normal;font-variant:normal;font-weight:normal;font-stretch:normal;font-size:28.2646px;font-family:'Vladimir Script';-inkscape-font-specification:'Vladimir Script';writing-mode:lr-tb;direction:ltr;opacity:0.6875;fill:#ffffff;fill-opacity:1;stroke:#000000;stroke-width:0.086;stroke-dasharray:none;stroke-opacity:1"
       x="-23.466572"
       y="240.22978"
       id="text17"
       transform="matrix(0.85661868,-0.08244012,0.10340051,1.1574294,0,0)"><tspan
         sodipodi:role="line"
         id="tspan17"
         x="-23.466572"
         y="240.22978"
         style="font-style:normal;font-variant:normal;font-weight:normal;font-stretch:normal;font-family:'Vladimir Script';-inkscape-font-specification:'Vladimir Script';stroke:#000000;stroke-width:0.086;stroke-dasharray:none;stroke-opacity:1">Freedom in editing</tspan></text></g></svg>
